<?xml version="1.0" standalone="no"?>
<!DOCTYPE svg PUBLIC "-//W3C//DTD SVG 20010904//EN"
 "http://www.w3.org/TR/2001/REC-SVG-20010904/DTD/svg10.dtd">
<svg version="1.0" xmlns="http://www.w3.org/2000/svg"
 width="500.000000pt" height="500.000000pt" viewBox="0 0 500.000000 500.000000"
 preserveAspectRatio="xMidYMid meet">

<g transform="translate(0.000000,500.000000) scale(0.100000,-0.100000)"
fill="#000000" stroke="none">
<path d="M0 2500 l0 -2500 2500 0 2500 0 0 2500 0 2500 -2500 0 -2500 0 0
-2500z m2806 1306 c55 -14 129 -36 165 -49 340 -128 631 -409 768 -742 48
-117 48 -115 7 -115 -27 0 -36 5 -41 23 -15 48 -69 165 -103 222 -169 284
-433 489 -746 579 -130 38 -206 48 -356 48 -198 0 -354 -32 -525 -109 -299
-135 -548 -396 -661 -690 -27 -70 -29 -73 -61 -73 -18 0 -33 2 -33 5 0 14 52
140 85 205 58 116 127 212 229 318 180 187 389 309 637 372 130 33 191 39 369
35 133 -3 184 -9 266 -29z m-376 -161 c11 -13 8 -14 -19 -9 -24 5 -31 3 -31
-10 0 -10 8 -16 24 -16 29 0 49 -22 40 -44 -6 -17 -74 -24 -74 -8 0 5 14 7 30
4 43 -6 42 26 -1 35 -37 7 -49 31 -24 49 24 18 40 18 55 -1z m150 5 c8 -5 11
-13 6 -17 -5 -4 -11 -2 -13 5 -3 6 -14 12 -25 12 -28 0 -19 -33 12 -40 18 -4
25 -13 25 -30 0 -22 -5 -25 -34 -25 -20 0 -36 6 -39 13 -3 11 0 11 16 1 22
-14 56 -5 50 14 -3 6 -14 13 -26 15 -31 5 -47 28 -32 47 14 17 38 19 60 5z
m95 -68 c-4 -26 -10 -41 -12 -34 -3 7 -2 34 2 60 4 26 10 41 12 34 3 -7 2 -34
-2 -60z m-390 48 c-3 -5 -15 -10 -26 -10 -12 0 -19 -7 -19 -20 0 -17 5 -19 28
-15 26 5 26 5 5 -6 -35 -18 -30 -42 7 -37 17 3 30 1 30 -4 0 -4 -6 -8 -12 -8
-7 0 -22 -3 -34 -6 -18 -5 -23 1 -33 40 -15 61 -14 64 12 69 40 8 48 7 42 -3z
m555 -30 c24 -24 25 -47 3 -72 -33 -37 -95 -13 -95 37 0 51 55 72 92 35z
m-690 -5 c0 -3 -11 -10 -25 -15 -14 -5 -25 -17 -25 -26 0 -13 6 -15 30 -10 19
3 29 2 25 -4 -3 -6 -13 -10 -22 -10 -11 0 -14 -7 -11 -25 9 -42 -9 -28 -26 22
-18 52 -19 49 14 62 29 11 40 13 40 6z m816 -62 c11 -61 19 -69 34 -34 7 17
16 31 21 31 5 0 -1 -20 -13 -45 -12 -25 -25 -45 -29 -45 -4 0 -10 18 -14 40
-9 51 -20 57 -35 20 -7 -17 -16 -30 -20 -30 -5 0 1 23 13 50 11 28 24 50 29
50 4 0 10 -17 14 -37z m-939 -39 c14 -22 14 -26 -1 -48 -31 -48 -89 -41 -102
11 -6 21 -2 31 19 49 31 27 61 22 84 -12z m1108 -71 c-8 -54 -24 -92 -25 -58
0 24 -33 47 -55 39 -8 -3 -15 -4 -15 -1 0 8 83 66 94 67 4 0 5 -21 1 -47z
m-1267 -21 c2 -13 10 -26 18 -29 8 -3 14 -9 14 -14 0 -5 -11 -4 -25 1 -29 11
-39 0 -29 -33 8 -26 6 -24 -36 28 l-31 39 23 18 c31 24 62 19 66 -10z m1372
-21 c0 -5 -12 -23 -26 -41 -25 -30 -26 -31 -9 -50 10 -11 14 -20 8 -20 -5 0
-18 9 -27 19 -17 19 -17 21 15 60 37 44 39 46 39 32z m-1492 -63 c17 -17 15
-43 -3 -58 -11 -9 -13 -16 -5 -24 5 -5 10 -15 10 -20 0 -6 -18 7 -40 29 l-40
39 22 23 c24 26 38 29 56 11z m2532 -460 c72 -36 146 -109 179 -178 24 -51 26
-65 26 -190 0 -123 -2 -139 -24 -180 -35 -66 -77 -117 -127 -151 -82 -56 -111
-62 -342 -68 l-214 -6 -27 -71 c-131 -336 -405 -616 -741 -755 -41 -18 -127
-45 -190 -62 -110 -29 -123 -30 -320 -30 -197 0 -210 1 -320 30 -63 17 -149
44 -190 62 -336 139 -610 419 -741 755 l-27 71 -204 5 c-194 5 -206 6 -260 32
-80 37 -152 107 -191 187 -31 63 -32 70 -32 186 0 108 3 125 26 175 45 96 107
155 204 195 l52 21 1704 -1 1704 0 55 -27z"/>
<path d="M2778 3599 c-27 -15 -23 -57 7 -71 30 -13 55 3 55 36 0 39 -28 55
-62 35z"/>
<path d="M1950 3496 c-6 -8 -10 -25 -8 -38 2 -19 9 -23 38 -23 29 0 36 4 38
23 4 28 -14 52 -38 52 -10 0 -23 -7 -30 -14z"/>
<path d="M3105 3437 c-10 -8 -15 -19 -11 -25 12 -19 23 -14 28 13 6 29 7 29
-17 12z"/>
<path d="M1814 3406 c-17 -13 -18 -16 -3 -31 14 -14 17 -14 33 4 10 11 15 25
11 30 -8 15 -17 14 -41 -3z"/>
<path d="M1701 3296 c-9 -10 -8 -16 4 -26 13 -11 19 -11 32 2 16 17 10 38 -11
38 -8 0 -19 -6 -25 -14z"/>
<path d="M794 2809 c-64 -24 -139 -95 -169 -161 -43 -92 -42 -236 2 -321 27
-53 88 -110 148 -139 l60 -28 543 0 542 0 0 -35 0 -35 -315 -2 -314 -3 33 -82
c140 -341 440 -611 802 -722 147 -45 214 -54 379 -54 159 0 240 13 390 60 362
114 672 411 801 766 l13 37 -168 0 c-138 0 -171 3 -181 15 -11 13 -74 15 -455
15 -381 0 -444 -2 -455 -15 -16 -19 -80 -20 -80 -1 0 8 8 23 18 35 l17 21 905
2 905 3 41 22 c55 29 118 95 146 151 20 41 23 62 23 157 0 100 -3 115 -27 161
-30 57 -87 112 -150 146 l-43 23 -1680 2 c-1647 2 -1681 2 -1731 -18z m2994
-205 c3 -23 -18 -37 -43 -28 -16 6 -20 35 -8 48 14 14 48 1 51 -20z m-2190
-86 l3 -97 -66 0 c-54 0 -69 4 -85 22 -26 27 -25 68 2 102 18 23 27 26 55 22
31 -5 33 -4 33 24 0 27 3 30 28 27 l27 -3 3 -97z m-538 67 c0 -22 -4 -25 -35
-25 -24 0 -35 -5 -35 -15 0 -10 10 -15 30 -15 25 0 30 -4 30 -25 0 -21 -5 -25
-30 -25 -27 0 -30 -3 -30 -30 0 -28 -3 -30 -35 -30 l-35 0 0 95 0 95 70 0 c68
0 70 -1 70 -25z m2320 0 c0 -22 -4 -25 -35 -25 -24 0 -35 -5 -35 -15 0 -10 10
-15 30 -15 25 0 30 -4 30 -25 0 -21 -5 -25 -30 -25 -27 0 -30 -3 -30 -30 0
-28 -3 -30 -35 -30 l-35 0 0 95 0 95 70 0 c68 0 70 -1 70 -25z m-2165 -40 c50
-49 17 -125 -55 -125 -43 0 -76 21 -84 55 -19 76 83 127 139 70z m172 7 c34
-26 39 -71 13 -105 -17 -22 -29 -27 -65 -27 -35 0 -48 5 -64 26 -28 35 -26 69
4 99 29 30 79 33 112 7z m2073 -26 c0 -46 16 -69 31 -45 5 8 9 31 9 52 0 34 2
37 30 37 30 0 30 -1 30 -55 0 -71 -21 -95 -84 -95 -57 0 -76 24 -76 97 0 52 0
53 30 53 29 0 30 -2 30 -44z m228 28 c33 -23 27 -37 -13 -32 -19 2 -35 0 -35
-4 0 -4 10 -8 23 -8 29 0 47 -18 47 -45 0 -32 -19 -45 -65 -45 -42 0 -65 13
-65 37 0 7 10 13 23 14 l22 0 -22 9 c-29 12 -32 64 -5 79 25 15 64 13 90 -5z
m245 5 c30 -16 37 -28 37 -71 0 -45 -27 -68 -82 -68 -49 0 -78 28 -78 74 0 59
67 94 123 65z m200 -7 c12 -11 17 -30 17 -74 0 -58 0 -58 -30 -58 -29 0 -30 2
-30 43 0 24 -3 47 -7 50 -14 14 -33 -17 -33 -54 0 -37 -2 -39 -30 -39 l-30 0
0 74 0 74 63 0 c41 -1 68 -6 80 -16z m-343 -62 l0 -70 -30 0 -30 0 0 70 0 70
30 0 30 0 0 -70z m-437 -568 c-3 -13 6 -24 31 -37 20 -11 36 -23 36 -28 0 -5
-18 2 -40 14 -32 18 -42 20 -55 9 -21 -18 -19 -3 6 31 24 34 29 36 22 11z
m-1659 -14 c22 -32 19 -48 -3 -19 -12 16 -24 22 -35 18 -16 -6 -16 -8 0 -32 9
-14 12 -25 8 -25 -5 0 -15 9 -22 21 -11 17 -16 18 -28 8 -8 -6 -17 -9 -20 -6
-6 5 65 57 78 57 4 0 14 -10 22 -22z m1621 -109 c49 -43 45 -53 -17 -45 l-53
7 28 -28 c15 -16 27 -32 27 -37 0 -9 -80 57 -80 67 0 4 24 7 53 7 l52 1 -27
24 c-26 22 -34 35 -23 35 2 0 20 -14 40 -31z m-1537 -1 c30 -30 3 -98 -39 -98
-23 0 -59 34 -59 57 0 42 68 71 98 41z m125 -126 c23 -20 22 -47 -3 -72 -26
-26 -46 -25 -75 4 -27 27 -24 58 7 81 22 15 43 11 71 -13z m1322 -30 c-30 -6
-54 -32 -48 -50 4 -12 3 -14 -4 -7 -14 13 -43 102 -36 109 3 3 29 -7 57 -21
39 -21 47 -28 31 -31z m-147 -39 c5 -10 8 -23 5 -29 -2 -6 7 -16 19 -22 21
-11 20 -12 -9 -6 -41 7 -59 -2 -42 -22 6 -8 9 -17 6 -20 -6 -6 -57 65 -57 80
0 13 32 35 52 36 10 0 21 -8 26 -17z m-1054 -14 c31 -24 34 -59 6 -84 -19 -18
-48 -16 -80 5 -13 8 -12 15 9 55 13 25 27 45 31 45 4 0 19 -9 34 -21z m940
-127 c-6 -9 -24 -17 -40 -17 -21 0 -33 8 -47 32 -10 18 -17 38 -15 45 3 7 13
-6 24 -27 24 -51 60 -57 58 -10 -1 17 -5 41 -8 55 -4 14 3 6 16 -18 17 -33 20
-47 12 -60z m-706 26 c16 -14 15 -33 -3 -48 -8 -7 -15 -22 -16 -34 0 -18 -2
-17 -11 7 -11 31 -25 34 -45 10 -13 -16 -14 -16 -9 9 14 63 25 80 49 72 12 -3
28 -11 35 -16z m541 -37 c32 -41 41 -62 17 -42 -16 14 -66 -2 -66 -20 0 -7 -3
-10 -6 -6 -9 8 6 107 16 107 5 0 22 -18 39 -39z m-426 11 c-41 -4 -43 -26 -5
-41 l27 -11 -27 3 c-19 3 -28 -1 -31 -14 -3 -13 3 -19 26 -23 17 -3 28 -9 24
-12 -3 -3 -20 -3 -37 1 -32 7 -32 7 -25 54 9 59 8 59 47 52 l33 -6 -32 -3z
m282 -1 c-16 -6 -19 -17 -18 -57 l1 -49 -11 48 c-8 37 -15 47 -31 47 -17 0
-18 2 -6 10 8 5 31 9 50 9 27 0 30 -2 15 -8z m-127 -21 c4 -12 2 -13 -9 -2
-18 16 -49 15 -49 -2 0 -8 13 -17 29 -21 35 -8 46 -29 25 -50 -19 -19 -35 -19
-60 0 -20 15 -8 21 15 6 8 -5 20 -7 28 -4 22 9 14 28 -17 40 -21 8 -30 18 -30
33 0 18 5 21 32 18 17 -2 33 -10 36 -18z"/>
<path d="M1500 2505 c-14 -16 -5 -35 16 -35 15 0 20 35 5 44 -5 3 -14 -1 -21
-9z"/>
<path d="M1147 2514 c-4 -4 -7 -16 -7 -26 0 -20 25 -25 36 -7 8 13 -19 43 -29
33z"/>
<path d="M1320 2505 c-14 -16 -5 -35 16 -35 15 0 20 35 5 44 -5 3 -14 -1 -21
-9z"/>
<path d="M3881 2510 c-17 -10 -7 -40 14 -40 8 0 15 9 15 19 0 24 -12 32 -29
21z"/>
<path d="M1712 1788 c-34 -34 6 -90 48 -68 35 19 20 80 -20 80 -9 0 -21 -5
-28 -12z"/>
<path d="M1832 1668 c-29 -29 -2 -72 40 -66 17 2 24 11 26 32 5 41 -37 63 -66
34z"/>
<path d="M3157 1650 c6 -23 16 -25 32 -6 9 11 8 15 -5 20 -26 10 -32 7 -27
-14z"/>
<path d="M3028 1596 c-14 -10 -15 -16 -5 -30 11 -14 15 -15 31 -3 12 9 17 20
13 31 -8 19 -16 20 -39 2z"/>
<path d="M1970 1558 c-15 -24 -16 -34 -7 -40 43 -27 94 17 61 53 -23 26 -31
24 -54 -13z"/>
<path d="M2200 1471 c0 -16 6 -21 26 -21 33 0 30 33 -4 38 -17 3 -22 -2 -22
-17z"/>
<path d="M2760 1447 c0 -28 6 -32 28 -19 9 7 8 13 -8 27 -20 18 -20 18 -20 -8z"/>
</g>
</svg>
